<svg width="18" height="18" viewBox="0 0 18 18" fill="none" xmlns="http://www.w3.org/2000/svg">
<path d="M5.625 16.3125C6.24632 16.3125 6.75 15.8088 6.75 15.1875C6.75 14.5662 6.24632 14.0625 5.625 14.0625C5.00368 14.0625 4.5 14.5662 4.5 15.1875C4.5 15.8088 5.00368 16.3125 5.625 16.3125Z" fill="white"/>
<path d="M12.9375 16.3125C13.5588 16.3125 14.0625 15.8088 14.0625 15.1875C14.0625 14.5662 13.5588 14.0625 12.9375 14.0625C12.3162 14.0625 11.8125 14.5662 11.8125 15.1875C11.8125 15.8088 12.3162 16.3125 12.9375 16.3125Z" fill="white"/>
<path d="M2.97322 5.0625H15.5893L13.7331 11.5591C13.666 11.7941 13.5241 12.0009 13.3289 12.1481C13.1337 12.2954 12.8959 12.375 12.6514 12.375H5.91109C5.66661 12.375 5.42879 12.2954 5.23362 12.1481C5.03844 12.0009 4.89654 11.7941 4.82937 11.5591L2.28621 2.65797C2.25262 2.54044 2.18167 2.43704 2.08408 2.36343C1.9865 2.28982 1.86759 2.25 1.74535 2.25H0.5625" stroke="white" stroke-width="1.125" stroke-linecap="round" stroke-linejoin="round"/>
</svg>
