<svg width="18" height="18" viewBox="0 0 18 18" fill="none" xmlns="http://www.w3.org/2000/svg">
<path d="M8.4375 6.1875L6.1875 15.75" stroke="white" stroke-width="1.125" stroke-linecap="round" stroke-linejoin="round"/>
<path d="M4.32729 11.0077C3.83796 10.2778 3.52644 9.44337 3.41769 8.57138C3.30895 7.69939 3.406 6.81405 3.70108 5.98632C3.99615 5.1586 4.48105 4.41152 5.11688 3.80497C5.75272 3.19842 6.52181 2.74927 7.36252 2.49351C8.20322 2.23776 9.09215 2.18253 9.95805 2.33224C10.8239 2.48195 11.6427 2.83244 12.3488 3.35561C13.0548 3.87878 13.6284 4.56009 14.0237 5.34491C14.419 6.12974 14.6249 6.99625 14.6249 7.875C14.6249 10.9816 12.3749 12.9375 10.1249 12.9375C7.87494 12.9375 7.19772 11.4563 7.19772 11.4563" stroke="white" stroke-width="1.125" stroke-linecap="round" stroke-linejoin="round"/>
</svg>
