<svg width="18" height="19" viewBox="0 0 18 19" fill="none" xmlns="http://www.w3.org/2000/svg">
<path d="M12.855 15.9766H5.14499C3.44249 15.9766 2.0625 14.5966 2.0625 12.8941V5.18406C2.0625 3.48156 3.44249 2.10156 5.14499 2.10156H12.855C14.5575 2.10156 15.9375 3.48156 15.9375 5.18406V12.8941C15.9375 14.5966 14.5575 15.9766 12.855 15.9766Z" stroke="white" stroke-width="1.12" stroke-linecap="round" stroke-linejoin="round"/>
<path d="M8.99977 11.7144C10.4785 11.7144 11.6773 10.5156 11.6773 9.03687C11.6773 7.55813 10.4785 6.35938 8.99977 6.35938C7.52103 6.35938 6.32227 7.55813 6.32227 9.03687C6.32227 10.5156 7.52103 11.7144 8.99977 11.7144Z" stroke="white" stroke-width="1.12" stroke-linecap="round" stroke-linejoin="round"/>
<path d="M12.8623 5.97859C13.289 5.97859 13.6348 5.63273 13.6348 5.20609C13.6348 4.77945 13.289 4.43359 12.8623 4.43359C12.4357 4.43359 12.0898 4.77945 12.0898 5.20609C12.0898 5.63273 12.4357 5.97859 12.8623 5.97859Z" fill="white"/>
</svg>
