<svg width="18" height="18" viewBox="0 0 18 18" fill="none" xmlns="http://www.w3.org/2000/svg">
<path d="M3.19421 12.4434C2.35557 11.0297 2.06187 9.35842 2.36826 7.74344C2.67465 6.12847 3.56006 4.6809 4.85823 3.67255C6.15639 2.66419 7.77801 2.16442 9.41858 2.26709C11.0592 2.36975 12.6058 3.06778 13.7681 4.2301C14.9305 5.39243 15.6285 6.93909 15.7312 8.57966C15.8339 10.2202 15.3341 11.8418 14.3258 13.14C13.3174 14.4382 11.8698 15.3236 10.2549 15.63C8.6399 15.9364 6.96862 15.6427 5.55487 14.8041L5.55488 14.804L3.22356 15.4701C3.12711 15.4977 3.02504 15.4989 2.92793 15.4738C2.83082 15.4486 2.74221 15.3979 2.67128 15.327C2.60035 15.2561 2.54967 15.1675 2.52451 15.0703C2.49935 14.9732 2.50061 14.8712 2.52817 14.7747L3.19426 12.4434L3.19421 12.4434Z" stroke="white" stroke-width="0.9" stroke-linecap="round" stroke-linejoin="round"/>
<path d="M10.6955 12.9375C9.95546 12.9385 9.2225 12.7936 8.5386 12.5109C7.8547 12.2281 7.23331 11.8133 6.71002 11.29C6.18674 10.7667 5.77186 10.1453 5.48915 9.4614C5.20644 8.7775 5.06145 8.04454 5.06251 7.30451C5.06418 6.78361 5.27239 6.28465 5.64147 5.91707C6.01055 5.54949 6.51035 5.34331 7.03125 5.34375C7.11669 5.34375 7.20061 5.36634 7.2745 5.40922C7.3484 5.4521 7.40965 5.51376 7.45204 5.58794L8.27406 7.02649C8.32364 7.11324 8.34921 7.21164 8.34814 7.31155C8.34708 7.41146 8.31942 7.50929 8.26802 7.59497L7.60785 8.69525C7.94749 9.44898 8.55102 10.0525 9.30475 10.3922L10.405 9.73199C10.4907 9.68058 10.5885 9.65292 10.6885 9.65186C10.7884 9.6508 10.8868 9.67637 10.9735 9.72594L12.4121 10.548C12.4862 10.5904 12.5479 10.6516 12.5908 10.7255C12.6337 10.7994 12.6563 10.8833 12.6563 10.9687C12.6548 11.4891 12.448 11.9877 12.0808 12.3564C11.7136 12.7251 11.2158 12.9339 10.6955 12.9375Z" stroke="white" stroke-width="0.9" stroke-linecap="round" stroke-linejoin="round"/>
</svg>
